<?xml version="1.0" encoding="UTF-8" standalone="yes"?>
<!DOCTYPE svg PUBLIC "-//W3C//DTD SVG 1.1//EN" "http://www.w3.org/Graphics/SVG/1.1/DTD/svg11.dtd">

<svg width="500" height="200" viewBox="0 0 500 200" xmlns="http://www.w3.org/2000/svg" xmlns:xlink="http://www.w3.org/1999/xlink" version="1.1" baseProfile="full">
    <g transform="scale(1.000000,-1.000000) translate(0,-200)">
        <path d="M 72.853061 1.000000 L 1.000000 1.000000 L 1.000000 76.182575 L 11.740368 76.182575 L 11.740368 11.740368 L 72.853061 11.740368 Z M 160.709271 1.000000 L 82.949007 1.000000 L 82.949007 76.182575 L 160.709271 76.182575 L 160.709271 65.442207 L 93.689375 65.442207 L 93.689375 11.740368 L 160.709271 11.740368 Z M 151.579958 33.221104 L 99.059559 33.221104 L 99.059559 43.961472 L 151.579958 43.961472 Z M 259.520655 1.000000 L 248.780287 1.000000 L 248.780287 22.480736 L 188.741631 22.480736 L 188.741631 33.221104 L 248.780287 33.221104 L 248.780287 65.442207 L 210.222366 65.442207 Q 202.918916 65.442207 196.796907 61.844184 Q 190.674897 58.246161 187.076874 52.124151 Q 183.478850 46.002141 183.478850 38.591288 L 183.478850 1.000000 L 172.738483 1.000000 L 172.738483 38.591288 Q 172.738483 46.324352 175.638382 53.144486 Q 178.538281 59.964620 183.693658 65.173698 Q 188.849034 70.382777 195.669168 73.282676 Q 202.489302 76.182575 210.222366 76.182575 L 259.520655 76.182575 Z M 366.172508 38.591288 Q 366.172508 30.750819 363.702224 23.930685 Q 361.231939 17.110552 356.667283 11.955175 Q 352.102626 6.799799 345.712107 3.899899 Q 339.321589 1.000000 331.588524 1.000000 L 293.675025 1.000000 L 293.675025 11.740368 L 331.588524 11.740368 Q 338.999377 11.740368 344.369561 15.392093 Q 349.739745 19.043818 352.585943 25.112126 Q 355.432140 31.180434 355.432140 38.591288 Q 355.432140 46.002141 352.585943 52.124151 Q 349.739745 58.246161 344.369561 61.844184 Q 338.999377 65.442207 331.588524 65.442207 L 288.304841 65.442207 L 288.304841 1.000000 L 277.564473 1.000000 L 277.564473 76.182575 L 331.588524 76.182575 Q 339.321589 76.182575 345.712107 73.282676 Q 352.102626 70.382777 356.667283 65.173698 Q 361.231939 59.964620 363.702224 53.144486 Q 366.172508 46.324352 366.172508 38.591288 Z M 466.702352 1.000000 L 452.202855 1.000000 L 429.648082 22.480736 L 396.675153 22.480736 L 396.675153 33.113700 L 439.851432 33.113700 Q 444.362386 33.113700 448.014112 35.315475 Q 451.665837 37.517251 453.813910 41.222678 Q 455.961984 44.928105 455.961984 49.331656 Q 455.961984 53.842610 453.813910 57.494335 Q 451.665837 61.146060 448.014112 63.294134 Q 444.362386 65.442207 439.851432 65.442207 L 390.660547 65.442207 L 390.660547 1.000000 L 379.920179 1.000000 L 379.920179 76.182575 L 439.851432 76.182575 Q 447.262286 76.182575 453.384296 72.584552 Q 459.506305 68.986529 463.104328 62.864519 Q 466.702352 56.742509 466.702352 49.331656 Q 466.702352 42.672627 463.748751 36.980232 Q 460.795149 31.287837 455.693475 27.582411 Q 450.591800 23.876984 444.147579 22.802947 Z" transform="scale(1.000000,1.000000) translate(16.148824,61.408712)" fill="#ffffff" opacity="1.000000"></path>
    </g>
</svg>