<svg xmlns="http://www.w3.org/2000/svg" viewBox="0 0 170 37"><defs><style>.cls-1{fill:#424242;}.cls-2{fill:#ff6d00;}</style></defs><g id="Layer_2" data-name="Layer 2"><g id="NAV"><g id="LOGO"><path class="cls-1" d="M112.41,11.88a5.27,5.27,0,0,1,2.87-.75,6.82,6.82,0,0,1,2.44.54,5.59,5.59,0,0,1,2.13,1.39l1.8-2.36a9.18,9.18,0,0,0-3-1.71,10,10,0,0,0-3.51-.64,9.15,9.15,0,0,0-4.46,1.07,7.87,7.87,0,0,0-3.19,3,8.41,8.41,0,0,0,0,8.56A8.58,8.58,0,0,0,115,25.26a9.41,9.41,0,0,0,3.4-.64A11.61,11.61,0,0,0,121.44,23v-6.2h-2.76V21.3a8.43,8.43,0,0,1-1.81.75,5.61,5.61,0,0,1-4.67-.43,6,6,0,0,1-2-2,5.42,5.42,0,0,1-.74-2.89,4.87,4.87,0,0,1,.74-2.78A8,8,0,0,1,112.41,11.88Z"/><path class="cls-1" d="M168.72,13.59a4.47,4.47,0,0,0-3.4-1.28,4.55,4.55,0,0,0-4.46,2.57V7.6h-3.08V25.05h3.08V18.84a3.93,3.93,0,0,1,.85-2.57,3.27,3.27,0,0,1,2.44-1.07,2.58,2.58,0,0,1,2.77,2.38,2.67,2.67,0,0,1,0,.4v7H170V17.13A5.17,5.17,0,0,0,168.72,13.59Z"/><path class="cls-1" d="M153.1,13.27a7,7,0,0,0-3.4-.75,7.69,7.69,0,0,0-3.5.75,6,6,0,0,0-2.34,2.25,6.65,6.65,0,0,0-.85,3.32h0v10.6h3.08v-5a.1.1,0,0,1,.11.1h0a7,7,0,0,0,3.5.75,6.8,6.8,0,0,0,3.4-.75,5.8,5.8,0,0,0,2.34-2.24,6.89,6.89,0,0,0,.85-3.32,6.62,6.62,0,0,0-.85-3.32A6.17,6.17,0,0,0,153.1,13.27Zm-.95,8.35a3.57,3.57,0,0,1-5.08,0l0,0a4,4,0,0,1-1-2.78h0a4,4,0,0,1,1-2.78,3.57,3.57,0,0,1,5.08,0l0,0a4,4,0,0,1,.95,2.78,3.82,3.82,0,0,1-.95,2.78Z"/><path class="cls-1" d="M130.79,12.31a7.07,7.07,0,0,0-7.12,7v5.63h3V19.37a4.15,4.15,0,0,1,4.14-4.17h0Z"/><path class="cls-1" d="M140,13.49a5.56,5.56,0,0,0-3.72-1.18H133v2.46h2.66a3.16,3.16,0,0,1,2.12.64,2,2,0,0,1,.75,1.72v.32h-3.61a5.11,5.11,0,0,0-3.51,1.07,3.47,3.47,0,0,0-1.06,1.5,3.91,3.91,0,0,0-.22,1.17v.75c0,.22.11.33.11.54a5,5,0,0,1,.32.75,3.38,3.38,0,0,0,1.06,1.07c.11,0,.11.11.21.11s.11.1.22.1a.41.41,0,0,0,.32.11,5.5,5.5,0,0,0,2,.32h2.66a5.75,5.75,0,0,0,2.34-.53,3.78,3.78,0,0,0,1.49-1.4,4.61,4.61,0,0,0,.53-2v-4.5A3.79,3.79,0,0,0,140,13.49Zm-1.6,7v.64a1.5,1.5,0,0,1-.64,1.28,2.51,2.51,0,0,1-1.59.43h-1.06a1.76,1.76,0,0,1-.75-.11,3.83,3.83,0,0,1-1-.42l-.21-.22-.11-.11a1.91,1.91,0,0,1-.21-.85v-.43a.89.89,0,0,1,.32-.64l.1-.11.11-.11a.37.37,0,0,1,.32-.1c.1,0,.1,0,.21-.11a4.21,4.21,0,0,1,1.27-.11h3.19Z"/><polygon class="cls-2" points="49.3 11.45 54.4 11.45 54.4 25.16 57.59 25.16 57.59 11.45 62.69 11.45 62.69 8.67 49.3 8.67 49.3 11.45"/><rect class="cls-2" x="64.39" y="13.7" width="3.08" height="11.35"/><path class="cls-2" d="M97.86,19.37v5.57h3V19.37A4.16,4.16,0,0,1,105,15.2h0V12.31a7.05,7.05,0,0,0-7.11,7Z"/><path class="cls-2" d="M75.65,12.31a6.3,6.3,0,0,0-6.38,6.1,6.21,6.21,0,0,0,6.33,6.1h.05a6.89,6.89,0,0,0,3.29-.85v.21a3,3,0,0,1-1,2.36,4.19,4.19,0,0,1-2.66.85A6.69,6.69,0,0,1,71.4,25.8l-1.28,2.25a9.58,9.58,0,0,0,5.32,1.71,7.07,7.07,0,0,0,3.4-.75,6.17,6.17,0,0,0,2.33-2A5.87,5.87,0,0,0,82,23.87V18.41a6.2,6.2,0,0,0-6.32-6.1Zm0,9.74a3.64,3.64,0,1,1,3.5-3.74s0,.07,0,.1A3.65,3.65,0,0,1,75.65,22.05Z"/><ellipse class="cls-2" cx="65.98" cy="10.38" rx="1.7" ry="1.71"/><path class="cls-2" d="M90,12.31a6.55,6.55,0,0,0-3.29.86,5.65,5.65,0,0,0-2.23,2.24,6.67,6.67,0,0,0-.85,3.32,6.58,6.58,0,0,0,.74,3.32,5.68,5.68,0,0,0,2.23,2.25,7,7,0,0,0,3.4.75,8.68,8.68,0,0,0,3-.54,5.64,5.64,0,0,0,2.23-1.6l-1.59-1.72a5,5,0,0,1-1.49,1.08,5.31,5.31,0,0,1-1.81.32A3.44,3.44,0,0,1,88,21.84,3.65,3.65,0,0,1,86.7,19.7h9.24v-1a7.41,7.41,0,0,0-1.48-4.81A6.12,6.12,0,0,0,90,12.31Zm-3.18,5.14a4.22,4.22,0,0,1,1.06-1.93,3.47,3.47,0,0,1,2.23-.86,3.52,3.52,0,0,1,2.34.86,2.38,2.38,0,0,1,.85,1.93Z"/><path class="cls-2" d="M36,14.13s-.11-.21-.21-.11a.34.34,0,0,0-.11.22c.21,3.1-1.49,8-8.61,12.63a.15.15,0,0,1-.21,0,.16.16,0,0,1,0-.22c3.08-3.42,10-12.84,2.34-18.84,0,0-.21-.21-.32-.1a.31.31,0,0,0-.11.21c1.81,4.82-.53,9-1.7,10.71a.38.38,0,0,1-.21.1c-.11,0-.11-.21-.11-.21,1.6-7-1.16-11.24-5.52-14.77L22.31,0,19.12.11a11.31,11.31,0,0,0-4.88,1.6,11.8,11.8,0,0,0-3.4.43A13.77,13.77,0,0,0,6,5.35L0,12.1l3,4.06a5.83,5.83,0,0,0,3.72,5.68,7.75,7.75,0,0,1,6.7-4.39A6.67,6.67,0,0,1,18.49,20c1.59-3.43-.43-7.39-1.07-8.89a.17.17,0,0,1,0-.21h0c.11-.11.22.11.22.11,7.43,8.56-.85,21.51-4.15,25.36a.31.31,0,0,0,0,.43h0c.11.32.43.11.43.11,2.12-.75,6.48-2.25,11.15-4.28C33.47,29.33,41.54,24,36,14.13Zm-27.73-4c-.11.11-.22,0-.11-.11s1-2.35,1-2.35c.32-.75.53-1.39,1.59-1.5L12.86,6S8.5,10.06,8.29,10.17Z"/></g></g></g></svg>